<mxfile host="app.diagrams.net" agent="Mozilla/5.0 (Windows NT 10.0; Win64; x64) AppleWebKit/537.36 (KHTML, like Gecko) Chrome/129.0.0.0 Safari/537.36" version="24.7.17">
  <diagram name="Page-1" id="Uf1BptqJR_37BQ48JQrq">
    <mxGraphModel dx="1434" dy="1804" grid="1" gridSize="10" guides="1" tooltips="1" connect="1" arrows="1" fold="1" page="1" pageScale="1" pageWidth="850" pageHeight="1100" math="0" shadow="0">
      <root>
        <object label="" aaa="" id="0">
          <mxCell />
        </object>
        <mxCell id="1" parent="0" />
        <mxCell id="JY17cGGeGFokxtmzh6jR-25" value="" style="edgeStyle=orthogonalEdgeStyle;rounded=0;orthogonalLoop=1;jettySize=auto;html=1;" parent="1" source="JY17cGGeGFokxtmzh6jR-1" target="JY17cGGeGFokxtmzh6jR-24" edge="1">
          <mxGeometry relative="1" as="geometry">
            <Array as="points">
              <mxPoint x="110" y="550" />
            </Array>
          </mxGeometry>
        </mxCell>
        <mxCell id="JY17cGGeGFokxtmzh6jR-1" value="Màn hình trang chủ giới thiệu" style="rounded=1;whiteSpace=wrap;html=1;" parent="1" vertex="1">
          <mxGeometry x="50" y="240" width="120" height="40" as="geometry" />
        </mxCell>
        <mxCell id="JY17cGGeGFokxtmzh6jR-13" value="" style="edgeStyle=orthogonalEdgeStyle;rounded=0;orthogonalLoop=1;jettySize=auto;html=1;" parent="1" source="JY17cGGeGFokxtmzh6jR-3" target="JY17cGGeGFokxtmzh6jR-12" edge="1">
          <mxGeometry relative="1" as="geometry" />
        </mxCell>
        <mxCell id="JY17cGGeGFokxtmzh6jR-3" value="Màn hình đăng ký" style="rounded=1;whiteSpace=wrap;html=1;fontSize=12;" parent="1" vertex="1">
          <mxGeometry x="170" y="180" width="110" height="40" as="geometry" />
        </mxCell>
        <mxCell id="JY17cGGeGFokxtmzh6jR-10" value="" style="endArrow=classic;html=1;rounded=0;exitX=0.75;exitY=0;exitDx=0;exitDy=0;entryX=0;entryY=0.75;entryDx=0;entryDy=0;" parent="1" source="JY17cGGeGFokxtmzh6jR-1" target="JY17cGGeGFokxtmzh6jR-3" edge="1">
          <mxGeometry width="50" height="50" relative="1" as="geometry">
            <mxPoint x="400" y="320" as="sourcePoint" />
            <mxPoint x="450" y="270" as="targetPoint" />
            <Array as="points">
              <mxPoint x="140" y="210" />
            </Array>
          </mxGeometry>
        </mxCell>
        <mxCell id="JY17cGGeGFokxtmzh6jR-17" value="" style="edgeStyle=orthogonalEdgeStyle;rounded=0;orthogonalLoop=1;jettySize=auto;html=1;" parent="1" source="JY17cGGeGFokxtmzh6jR-12" target="JY17cGGeGFokxtmzh6jR-16" edge="1">
          <mxGeometry relative="1" as="geometry">
            <Array as="points">
              <mxPoint x="440" y="200" />
              <mxPoint x="440" y="110" />
            </Array>
          </mxGeometry>
        </mxCell>
        <mxCell id="JY17cGGeGFokxtmzh6jR-148" style="edgeStyle=orthogonalEdgeStyle;rounded=0;orthogonalLoop=1;jettySize=auto;html=1;entryX=0;entryY=0.5;entryDx=0;entryDy=0;" parent="1" source="JY17cGGeGFokxtmzh6jR-12" target="JY17cGGeGFokxtmzh6jR-20" edge="1">
          <mxGeometry relative="1" as="geometry" />
        </mxCell>
        <mxCell id="JY17cGGeGFokxtmzh6jR-12" value="Màn hình xác thực mã OTP" style="rounded=1;whiteSpace=wrap;html=1;" parent="1" vertex="1">
          <mxGeometry x="300" y="180" width="115" height="40" as="geometry" />
        </mxCell>
        <mxCell id="JY17cGGeGFokxtmzh6jR-27" value="" style="edgeStyle=orthogonalEdgeStyle;rounded=0;orthogonalLoop=1;jettySize=auto;html=1;" parent="1" source="JY17cGGeGFokxtmzh6jR-16" target="JY17cGGeGFokxtmzh6jR-26" edge="1">
          <mxGeometry relative="1" as="geometry">
            <Array as="points">
              <mxPoint x="760" y="115" />
            </Array>
          </mxGeometry>
        </mxCell>
        <mxCell id="JY17cGGeGFokxtmzh6jR-16" value="Màn hình tạo hồ sơ bác sĩ- Màn hình tạo profile" style="rounded=1;whiteSpace=wrap;html=1;" parent="1" vertex="1">
          <mxGeometry x="470" y="90" width="140" height="50" as="geometry" />
        </mxCell>
        <mxCell id="JY17cGGeGFokxtmzh6jR-18" value="Rule bác sĩ" style="text;html=1;align=center;verticalAlign=middle;resizable=0;points=[];autosize=1;strokeColor=none;fillColor=none;fontSize=11;" parent="1" vertex="1">
          <mxGeometry x="350" y="140" width="80" height="30" as="geometry" />
        </mxCell>
        <mxCell id="JY17cGGeGFokxtmzh6jR-28" style="edgeStyle=orthogonalEdgeStyle;rounded=0;orthogonalLoop=1;jettySize=auto;html=1;entryX=0;entryY=0.5;entryDx=0;entryDy=0;" parent="1" source="JY17cGGeGFokxtmzh6jR-20" target="JY17cGGeGFokxtmzh6jR-26" edge="1">
          <mxGeometry relative="1" as="geometry" />
        </mxCell>
        <mxCell id="JY17cGGeGFokxtmzh6jR-20" value="Màn hình tạo profile" style="rounded=1;whiteSpace=wrap;html=1;" parent="1" vertex="1">
          <mxGeometry x="460" y="290" width="110" height="50" as="geometry" />
        </mxCell>
        <mxCell id="JY17cGGeGFokxtmzh6jR-22" value="Rule bệnh nhân" style="text;html=1;align=center;verticalAlign=middle;resizable=0;points=[];autosize=1;strokeColor=none;fillColor=none;fontSize=11;" parent="1" vertex="1">
          <mxGeometry x="425" y="250" width="100" height="30" as="geometry" />
        </mxCell>
        <mxCell id="JY17cGGeGFokxtmzh6jR-29" style="edgeStyle=orthogonalEdgeStyle;rounded=0;orthogonalLoop=1;jettySize=auto;html=1;entryX=0.25;entryY=1;entryDx=0;entryDy=0;" parent="1" source="JY17cGGeGFokxtmzh6jR-24" target="JY17cGGeGFokxtmzh6jR-26" edge="1">
          <mxGeometry relative="1" as="geometry" />
        </mxCell>
        <mxCell id="JY17cGGeGFokxtmzh6jR-24" value="Màn hình đăng nhập" style="rounded=1;whiteSpace=wrap;html=1;" parent="1" vertex="1">
          <mxGeometry x="340" y="530" width="120" height="40" as="geometry" />
        </mxCell>
        <mxCell id="JY17cGGeGFokxtmzh6jR-32" value="" style="edgeStyle=orthogonalEdgeStyle;rounded=0;orthogonalLoop=1;jettySize=auto;html=1;" parent="1" source="JY17cGGeGFokxtmzh6jR-26" target="JY17cGGeGFokxtmzh6jR-31" edge="1">
          <mxGeometry relative="1" as="geometry">
            <Array as="points">
              <mxPoint x="790" y="-110" />
            </Array>
          </mxGeometry>
        </mxCell>
        <mxCell id="JY17cGGeGFokxtmzh6jR-34" value="" style="edgeStyle=orthogonalEdgeStyle;rounded=0;orthogonalLoop=1;jettySize=auto;html=1;" parent="1" source="JY17cGGeGFokxtmzh6jR-26" target="JY17cGGeGFokxtmzh6jR-33" edge="1">
          <mxGeometry relative="1" as="geometry">
            <Array as="points">
              <mxPoint x="790" y="880" />
            </Array>
          </mxGeometry>
        </mxCell>
        <mxCell id="JY17cGGeGFokxtmzh6jR-26" value="Màn hình tãi dữ liệu&lt;div&gt;(Loading)&lt;/div&gt;" style="rounded=1;whiteSpace=wrap;html=1;" parent="1" vertex="1">
          <mxGeometry x="730" y="330" width="140" height="50" as="geometry" />
        </mxCell>
        <mxCell id="JY17cGGeGFokxtmzh6jR-171" style="edgeStyle=orthogonalEdgeStyle;rounded=0;orthogonalLoop=1;jettySize=auto;html=1;entryX=0;entryY=0.5;entryDx=0;entryDy=0;" parent="1" source="JY17cGGeGFokxtmzh6jR-31" target="JY17cGGeGFokxtmzh6jR-68" edge="1">
          <mxGeometry relative="1" as="geometry">
            <Array as="points">
              <mxPoint x="955" y="-115" />
              <mxPoint x="955" y="-45" />
            </Array>
          </mxGeometry>
        </mxCell>
        <mxCell id="c2DRTkK29ze6gAXHxPbl-2" style="edgeStyle=orthogonalEdgeStyle;rounded=0;orthogonalLoop=1;jettySize=auto;html=1;entryX=0;entryY=0.5;entryDx=0;entryDy=0;" edge="1" parent="1" source="JY17cGGeGFokxtmzh6jR-31" target="JY17cGGeGFokxtmzh6jR-198">
          <mxGeometry relative="1" as="geometry">
            <Array as="points">
              <mxPoint x="955" y="-115" />
              <mxPoint x="955" y="85" />
            </Array>
          </mxGeometry>
        </mxCell>
        <mxCell id="JY17cGGeGFokxtmzh6jR-31" value="Màn hình bác sĩ" style="rounded=1;whiteSpace=wrap;html=1;" parent="1" vertex="1">
          <mxGeometry x="820" y="-140" width="115" height="50" as="geometry" />
        </mxCell>
        <mxCell id="JY17cGGeGFokxtmzh6jR-36" value="" style="edgeStyle=orthogonalEdgeStyle;rounded=0;orthogonalLoop=1;jettySize=auto;html=1;" parent="1" target="JY17cGGeGFokxtmzh6jR-35" edge="1">
          <mxGeometry relative="1" as="geometry">
            <mxPoint x="940" y="885" as="sourcePoint" />
            <Array as="points">
              <mxPoint x="960" y="885" />
              <mxPoint x="960" y="470" />
            </Array>
          </mxGeometry>
        </mxCell>
        <mxCell id="JY17cGGeGFokxtmzh6jR-38" value="" style="edgeStyle=orthogonalEdgeStyle;rounded=0;orthogonalLoop=1;jettySize=auto;html=1;" parent="1" target="JY17cGGeGFokxtmzh6jR-37" edge="1">
          <mxGeometry relative="1" as="geometry">
            <mxPoint x="940" y="885" as="sourcePoint" />
            <Array as="points">
              <mxPoint x="960" y="885" />
              <mxPoint x="960" y="625" />
            </Array>
          </mxGeometry>
        </mxCell>
        <mxCell id="JY17cGGeGFokxtmzh6jR-41" value="" style="edgeStyle=orthogonalEdgeStyle;rounded=0;orthogonalLoop=1;jettySize=auto;html=1;" parent="1" target="JY17cGGeGFokxtmzh6jR-40" edge="1">
          <mxGeometry relative="1" as="geometry">
            <mxPoint x="940" y="885" as="sourcePoint" />
            <Array as="points">
              <mxPoint x="960" y="885" />
              <mxPoint x="960" y="540" />
            </Array>
          </mxGeometry>
        </mxCell>
        <mxCell id="JY17cGGeGFokxtmzh6jR-44" value="" style="edgeStyle=orthogonalEdgeStyle;rounded=0;orthogonalLoop=1;jettySize=auto;html=1;" parent="1" target="JY17cGGeGFokxtmzh6jR-43" edge="1">
          <mxGeometry relative="1" as="geometry">
            <mxPoint x="940" y="885" as="sourcePoint" />
            <Array as="points">
              <mxPoint x="960" y="885" />
              <mxPoint x="960" y="795" />
            </Array>
          </mxGeometry>
        </mxCell>
        <mxCell id="JY17cGGeGFokxtmzh6jR-47" value="" style="edgeStyle=orthogonalEdgeStyle;rounded=0;orthogonalLoop=1;jettySize=auto;html=1;" parent="1" target="JY17cGGeGFokxtmzh6jR-46" edge="1">
          <mxGeometry relative="1" as="geometry">
            <mxPoint x="940" y="885" as="sourcePoint" />
            <Array as="points">
              <mxPoint x="960" y="885" />
              <mxPoint x="960" y="955" />
            </Array>
          </mxGeometry>
        </mxCell>
        <mxCell id="JY17cGGeGFokxtmzh6jR-33" value="Màn hình bệnh nhân" style="rounded=1;whiteSpace=wrap;html=1;" parent="1" vertex="1">
          <mxGeometry x="820" y="860" width="120" height="50" as="geometry" />
        </mxCell>
        <mxCell id="JY17cGGeGFokxtmzh6jR-35" value="Màn hình trang chủ" style="rounded=1;whiteSpace=wrap;html=1;" parent="1" vertex="1">
          <mxGeometry x="1000" y="440" width="140" height="50" as="geometry" />
        </mxCell>
        <mxCell id="c2DRTkK29ze6gAXHxPbl-23" style="edgeStyle=orthogonalEdgeStyle;rounded=0;orthogonalLoop=1;jettySize=auto;html=1;entryX=0;entryY=0.5;entryDx=0;entryDy=0;" edge="1" parent="1" source="JY17cGGeGFokxtmzh6jR-37" target="JY17cGGeGFokxtmzh6jR-81">
          <mxGeometry relative="1" as="geometry" />
        </mxCell>
        <mxCell id="JY17cGGeGFokxtmzh6jR-37" value="Màn hình dịch vụ" style="rounded=1;whiteSpace=wrap;html=1;" parent="1" vertex="1">
          <mxGeometry x="1000" y="600" width="140" height="50" as="geometry" />
        </mxCell>
        <mxCell id="JY17cGGeGFokxtmzh6jR-90" value="" style="edgeStyle=orthogonalEdgeStyle;rounded=0;orthogonalLoop=1;jettySize=auto;html=1;" parent="1" source="JY17cGGeGFokxtmzh6jR-40" target="JY17cGGeGFokxtmzh6jR-89" edge="1">
          <mxGeometry relative="1" as="geometry" />
        </mxCell>
        <mxCell id="JY17cGGeGFokxtmzh6jR-40" value="Màn hình tìm kiếm thông minh" style="rounded=1;whiteSpace=wrap;html=1;" parent="1" vertex="1">
          <mxGeometry x="1000" y="520" width="140" height="50" as="geometry" />
        </mxCell>
        <mxCell id="JY17cGGeGFokxtmzh6jR-92" value="" style="edgeStyle=orthogonalEdgeStyle;rounded=0;orthogonalLoop=1;jettySize=auto;html=1;" parent="1" source="JY17cGGeGFokxtmzh6jR-43" target="JY17cGGeGFokxtmzh6jR-91" edge="1">
          <mxGeometry relative="1" as="geometry" />
        </mxCell>
        <mxCell id="JY17cGGeGFokxtmzh6jR-43" value="Màn hình đội ngũ bác sĩ" style="rounded=1;whiteSpace=wrap;html=1;" parent="1" vertex="1">
          <mxGeometry x="1000" y="770" width="140" height="50" as="geometry" />
        </mxCell>
        <mxCell id="JY17cGGeGFokxtmzh6jR-115" value="" style="edgeStyle=orthogonalEdgeStyle;rounded=0;orthogonalLoop=1;jettySize=auto;html=1;" parent="1" source="JY17cGGeGFokxtmzh6jR-46" target="JY17cGGeGFokxtmzh6jR-114" edge="1">
          <mxGeometry relative="1" as="geometry" />
        </mxCell>
        <mxCell id="JY17cGGeGFokxtmzh6jR-46" value="Màn hình hồ sơ sức khỏe" style="rounded=1;whiteSpace=wrap;html=1;" parent="1" vertex="1">
          <mxGeometry x="1000" y="930" width="140" height="50" as="geometry" />
        </mxCell>
        <mxCell id="JY17cGGeGFokxtmzh6jR-49" value="" style="edgeStyle=orthogonalEdgeStyle;rounded=0;orthogonalLoop=1;jettySize=auto;html=1;exitX=1;exitY=0.5;exitDx=0;exitDy=0;" parent="1" target="JY17cGGeGFokxtmzh6jR-54" edge="1">
          <mxGeometry relative="1" as="geometry">
            <mxPoint x="940" y="885" as="sourcePoint" />
            <Array as="points">
              <mxPoint x="960" y="885" />
              <mxPoint x="960" y="1065" />
            </Array>
          </mxGeometry>
        </mxCell>
        <mxCell id="JY17cGGeGFokxtmzh6jR-50" value="" style="edgeStyle=orthogonalEdgeStyle;rounded=0;orthogonalLoop=1;jettySize=auto;html=1;exitX=1;exitY=0.5;exitDx=0;exitDy=0;" parent="1" target="JY17cGGeGFokxtmzh6jR-55" edge="1">
          <mxGeometry relative="1" as="geometry">
            <mxPoint x="940" y="885" as="sourcePoint" />
            <Array as="points">
              <mxPoint x="960" y="885" />
              <mxPoint x="960" y="1235" />
            </Array>
          </mxGeometry>
        </mxCell>
        <mxCell id="JY17cGGeGFokxtmzh6jR-51" value="" style="edgeStyle=orthogonalEdgeStyle;rounded=0;orthogonalLoop=1;jettySize=auto;html=1;exitX=1;exitY=0.5;exitDx=0;exitDy=0;" parent="1" target="JY17cGGeGFokxtmzh6jR-56" edge="1">
          <mxGeometry relative="1" as="geometry">
            <mxPoint x="940" y="885" as="sourcePoint" />
            <Array as="points">
              <mxPoint x="960" y="885" />
              <mxPoint x="960" y="1420" />
            </Array>
          </mxGeometry>
        </mxCell>
        <mxCell id="JY17cGGeGFokxtmzh6jR-52" value="" style="edgeStyle=orthogonalEdgeStyle;rounded=0;orthogonalLoop=1;jettySize=auto;html=1;exitX=1;exitY=0.5;exitDx=0;exitDy=0;" parent="1" target="JY17cGGeGFokxtmzh6jR-57" edge="1">
          <mxGeometry relative="1" as="geometry">
            <mxPoint x="940" y="885" as="sourcePoint" />
            <Array as="points">
              <mxPoint x="960" y="885" />
              <mxPoint x="960" y="1540" />
            </Array>
          </mxGeometry>
        </mxCell>
        <mxCell id="JY17cGGeGFokxtmzh6jR-53" value="" style="edgeStyle=orthogonalEdgeStyle;rounded=0;orthogonalLoop=1;jettySize=auto;html=1;exitX=1;exitY=0.5;exitDx=0;exitDy=0;" parent="1" target="JY17cGGeGFokxtmzh6jR-58" edge="1">
          <mxGeometry relative="1" as="geometry">
            <mxPoint x="940" y="885" as="sourcePoint" />
            <Array as="points">
              <mxPoint x="960" y="885" />
              <mxPoint x="960" y="1670" />
            </Array>
          </mxGeometry>
        </mxCell>
        <mxCell id="JY17cGGeGFokxtmzh6jR-117" value="" style="edgeStyle=orthogonalEdgeStyle;rounded=0;orthogonalLoop=1;jettySize=auto;html=1;" parent="1" source="JY17cGGeGFokxtmzh6jR-54" target="JY17cGGeGFokxtmzh6jR-116" edge="1">
          <mxGeometry relative="1" as="geometry">
            <Array as="points">
              <mxPoint x="1170" y="1065" />
              <mxPoint x="1170" y="1035" />
            </Array>
          </mxGeometry>
        </mxCell>
        <mxCell id="JY17cGGeGFokxtmzh6jR-119" value="" style="edgeStyle=orthogonalEdgeStyle;rounded=0;orthogonalLoop=1;jettySize=auto;html=1;" parent="1" source="JY17cGGeGFokxtmzh6jR-54" target="JY17cGGeGFokxtmzh6jR-118" edge="1">
          <mxGeometry relative="1" as="geometry">
            <Array as="points">
              <mxPoint x="1170" y="1065" />
              <mxPoint x="1170" y="1100" />
            </Array>
          </mxGeometry>
        </mxCell>
        <mxCell id="JY17cGGeGFokxtmzh6jR-54" value="Màn hình theo dõi sức khỏe" style="rounded=1;whiteSpace=wrap;html=1;" parent="1" vertex="1">
          <mxGeometry x="1000" y="1040" width="140" height="50" as="geometry" />
        </mxCell>
        <mxCell id="JY17cGGeGFokxtmzh6jR-121" value="" style="edgeStyle=orthogonalEdgeStyle;rounded=0;orthogonalLoop=1;jettySize=auto;html=1;" parent="1" source="JY17cGGeGFokxtmzh6jR-55" target="JY17cGGeGFokxtmzh6jR-120" edge="1">
          <mxGeometry relative="1" as="geometry" />
        </mxCell>
        <mxCell id="JY17cGGeGFokxtmzh6jR-183" value="" style="edgeStyle=orthogonalEdgeStyle;rounded=0;orthogonalLoop=1;jettySize=auto;html=1;" parent="1" source="JY17cGGeGFokxtmzh6jR-55" target="JY17cGGeGFokxtmzh6jR-182" edge="1">
          <mxGeometry relative="1" as="geometry" />
        </mxCell>
        <mxCell id="JY17cGGeGFokxtmzh6jR-55" value="Màn hình khám sức khỏe tại nhà" style="rounded=1;whiteSpace=wrap;html=1;" parent="1" vertex="1">
          <mxGeometry x="990" y="1210" width="140" height="50" as="geometry" />
        </mxCell>
        <mxCell id="JY17cGGeGFokxtmzh6jR-129" value="" style="edgeStyle=orthogonalEdgeStyle;rounded=0;orthogonalLoop=1;jettySize=auto;html=1;" parent="1" source="JY17cGGeGFokxtmzh6jR-56" target="JY17cGGeGFokxtmzh6jR-128" edge="1">
          <mxGeometry relative="1" as="geometry" />
        </mxCell>
        <mxCell id="JY17cGGeGFokxtmzh6jR-56" value="Màn hình cuộc hẹn của bạn" style="rounded=1;whiteSpace=wrap;html=1;" parent="1" vertex="1">
          <mxGeometry x="990" y="1390" width="140" height="50" as="geometry" />
        </mxCell>
        <mxCell id="JY17cGGeGFokxtmzh6jR-133" value="" style="edgeStyle=orthogonalEdgeStyle;rounded=0;orthogonalLoop=1;jettySize=auto;html=1;" parent="1" source="JY17cGGeGFokxtmzh6jR-57" target="JY17cGGeGFokxtmzh6jR-132" edge="1">
          <mxGeometry relative="1" as="geometry" />
        </mxCell>
        <mxCell id="JY17cGGeGFokxtmzh6jR-57" value="Màn hình thảo luận" style="rounded=1;whiteSpace=wrap;html=1;" parent="1" vertex="1">
          <mxGeometry x="990" y="1510" width="140" height="50" as="geometry" />
        </mxCell>
        <mxCell id="JY17cGGeGFokxtmzh6jR-146" value="" style="edgeStyle=orthogonalEdgeStyle;rounded=0;orthogonalLoop=1;jettySize=auto;html=1;" parent="1" source="JY17cGGeGFokxtmzh6jR-58" target="JY17cGGeGFokxtmzh6jR-145" edge="1">
          <mxGeometry relative="1" as="geometry" />
        </mxCell>
        <mxCell id="JY17cGGeGFokxtmzh6jR-58" value="Màn hình cẩm nang" style="rounded=1;whiteSpace=wrap;html=1;" parent="1" vertex="1">
          <mxGeometry x="990" y="1650" width="140" height="50" as="geometry" />
        </mxCell>
        <mxCell id="JY17cGGeGFokxtmzh6jR-60" value="" style="edgeStyle=orthogonalEdgeStyle;rounded=0;orthogonalLoop=1;jettySize=auto;html=1;" parent="1" target="JY17cGGeGFokxtmzh6jR-65" edge="1">
          <mxGeometry relative="1" as="geometry">
            <mxPoint x="935" y="-115" as="sourcePoint" />
            <Array as="points">
              <mxPoint x="955" y="-115" />
              <mxPoint x="955" y="-545" />
            </Array>
          </mxGeometry>
        </mxCell>
        <mxCell id="JY17cGGeGFokxtmzh6jR-61" value="" style="edgeStyle=orthogonalEdgeStyle;rounded=0;orthogonalLoop=1;jettySize=auto;html=1;" parent="1" target="JY17cGGeGFokxtmzh6jR-66" edge="1">
          <mxGeometry relative="1" as="geometry">
            <mxPoint x="935" y="-115" as="sourcePoint" />
            <Array as="points">
              <mxPoint x="955" y="-115" />
              <mxPoint x="955" y="-430" />
            </Array>
          </mxGeometry>
        </mxCell>
        <mxCell id="JY17cGGeGFokxtmzh6jR-62" value="" style="edgeStyle=orthogonalEdgeStyle;rounded=0;orthogonalLoop=1;jettySize=auto;html=1;" parent="1" target="JY17cGGeGFokxtmzh6jR-67" edge="1">
          <mxGeometry relative="1" as="geometry">
            <mxPoint x="935" y="-115" as="sourcePoint" />
            <Array as="points">
              <mxPoint x="955" y="-115" />
              <mxPoint x="955" y="-200" />
            </Array>
          </mxGeometry>
        </mxCell>
        <mxCell id="JY17cGGeGFokxtmzh6jR-64" value="" style="edgeStyle=orthogonalEdgeStyle;rounded=0;orthogonalLoop=1;jettySize=auto;html=1;" parent="1" target="JY17cGGeGFokxtmzh6jR-69" edge="1">
          <mxGeometry relative="1" as="geometry">
            <mxPoint x="935" y="-115" as="sourcePoint" />
            <Array as="points">
              <mxPoint x="955" y="-115" />
              <mxPoint x="955" y="185" />
            </Array>
          </mxGeometry>
        </mxCell>
        <mxCell id="JY17cGGeGFokxtmzh6jR-65" value="Màn hình trang chủ" style="rounded=1;whiteSpace=wrap;html=1;" parent="1" vertex="1">
          <mxGeometry x="985" y="-570" width="140" height="50" as="geometry" />
        </mxCell>
        <mxCell id="JY17cGGeGFokxtmzh6jR-151" value="" style="edgeStyle=orthogonalEdgeStyle;rounded=0;orthogonalLoop=1;jettySize=auto;html=1;" parent="1" source="JY17cGGeGFokxtmzh6jR-66" target="JY17cGGeGFokxtmzh6jR-150" edge="1">
          <mxGeometry relative="1" as="geometry">
            <Array as="points">
              <mxPoint x="1170" y="-435" />
              <mxPoint x="1170" y="-510" />
            </Array>
          </mxGeometry>
        </mxCell>
        <mxCell id="JY17cGGeGFokxtmzh6jR-161" style="edgeStyle=orthogonalEdgeStyle;rounded=0;orthogonalLoop=1;jettySize=auto;html=1;entryX=0;entryY=0.5;entryDx=0;entryDy=0;" parent="1" source="JY17cGGeGFokxtmzh6jR-66" target="JY17cGGeGFokxtmzh6jR-160" edge="1">
          <mxGeometry relative="1" as="geometry" />
        </mxCell>
        <mxCell id="JY17cGGeGFokxtmzh6jR-163" style="edgeStyle=orthogonalEdgeStyle;rounded=0;orthogonalLoop=1;jettySize=auto;html=1;entryX=0;entryY=0.5;entryDx=0;entryDy=0;" parent="1" source="JY17cGGeGFokxtmzh6jR-66" target="JY17cGGeGFokxtmzh6jR-162" edge="1">
          <mxGeometry relative="1" as="geometry">
            <Array as="points">
              <mxPoint x="1170" y="-435" />
              <mxPoint x="1170" y="-365" />
            </Array>
          </mxGeometry>
        </mxCell>
        <mxCell id="JY17cGGeGFokxtmzh6jR-66" value="Màn hình doanh thu của tôi" style="rounded=1;whiteSpace=wrap;html=1;" parent="1" vertex="1">
          <mxGeometry x="990" y="-460" width="140" height="50" as="geometry" />
        </mxCell>
        <mxCell id="JY17cGGeGFokxtmzh6jR-67" value="Màn hình phiểu đăng ký" style="rounded=1;whiteSpace=wrap;html=1;" parent="1" vertex="1">
          <mxGeometry x="985" y="-220" width="140" height="50" as="geometry" />
        </mxCell>
        <mxCell id="JY17cGGeGFokxtmzh6jR-177" style="edgeStyle=orthogonalEdgeStyle;rounded=0;orthogonalLoop=1;jettySize=auto;html=1;entryX=0;entryY=0.5;entryDx=0;entryDy=0;exitX=1;exitY=0.5;exitDx=0;exitDy=0;" parent="1" source="JY17cGGeGFokxtmzh6jR-168" target="JY17cGGeGFokxtmzh6jR-176" edge="1">
          <mxGeometry relative="1" as="geometry" />
        </mxCell>
        <mxCell id="JY17cGGeGFokxtmzh6jR-68" value="Màn hình cuộc trò chuyện" style="rounded=1;whiteSpace=wrap;html=1;" parent="1" vertex="1">
          <mxGeometry x="985" y="-70" width="140" height="50" as="geometry" />
        </mxCell>
        <mxCell id="c2DRTkK29ze6gAXHxPbl-14" value="" style="edgeStyle=orthogonalEdgeStyle;rounded=0;orthogonalLoop=1;jettySize=auto;html=1;" edge="1" parent="1" source="JY17cGGeGFokxtmzh6jR-69" target="c2DRTkK29ze6gAXHxPbl-13">
          <mxGeometry relative="1" as="geometry" />
        </mxCell>
        <mxCell id="JY17cGGeGFokxtmzh6jR-69" value="Màn hình hồ sơ bác sĩ" style="rounded=1;whiteSpace=wrap;html=1;" parent="1" vertex="1">
          <mxGeometry x="980" y="160" width="140" height="50" as="geometry" />
        </mxCell>
        <mxCell id="JY17cGGeGFokxtmzh6jR-70" value="" style="edgeStyle=orthogonalEdgeStyle;rounded=0;orthogonalLoop=1;jettySize=auto;html=1;exitX=1;exitY=0.5;exitDx=0;exitDy=0;" parent="1" target="JY17cGGeGFokxtmzh6jR-75" edge="1">
          <mxGeometry relative="1" as="geometry">
            <mxPoint x="935" y="-115" as="sourcePoint" />
            <Array as="points">
              <mxPoint x="955" y="-115" />
              <mxPoint x="955" y="260" />
            </Array>
          </mxGeometry>
        </mxCell>
        <mxCell id="JY17cGGeGFokxtmzh6jR-71" value="" style="edgeStyle=orthogonalEdgeStyle;rounded=0;orthogonalLoop=1;jettySize=auto;html=1;exitX=1;exitY=0.5;exitDx=0;exitDy=0;" parent="1" target="JY17cGGeGFokxtmzh6jR-76" edge="1">
          <mxGeometry relative="1" as="geometry">
            <mxPoint x="935" y="-115" as="sourcePoint" />
            <Array as="points">
              <mxPoint x="955" y="-115" />
              <mxPoint x="955" y="360" />
            </Array>
          </mxGeometry>
        </mxCell>
        <mxCell id="c2DRTkK29ze6gAXHxPbl-16" style="edgeStyle=orthogonalEdgeStyle;rounded=0;orthogonalLoop=1;jettySize=auto;html=1;entryX=0;entryY=0.5;entryDx=0;entryDy=0;" edge="1" parent="1" source="JY17cGGeGFokxtmzh6jR-75" target="c2DRTkK29ze6gAXHxPbl-15">
          <mxGeometry relative="1" as="geometry" />
        </mxCell>
        <mxCell id="JY17cGGeGFokxtmzh6jR-75" value="Màn hình thảo luận" style="rounded=1;whiteSpace=wrap;html=1;" parent="1" vertex="1">
          <mxGeometry x="980" y="240" width="140" height="50" as="geometry" />
        </mxCell>
        <mxCell id="c2DRTkK29ze6gAXHxPbl-18" value="" style="edgeStyle=orthogonalEdgeStyle;rounded=0;orthogonalLoop=1;jettySize=auto;html=1;" edge="1" parent="1" source="JY17cGGeGFokxtmzh6jR-76" target="c2DRTkK29ze6gAXHxPbl-17">
          <mxGeometry relative="1" as="geometry" />
        </mxCell>
        <mxCell id="c2DRTkK29ze6gAXHxPbl-20" value="" style="edgeStyle=orthogonalEdgeStyle;rounded=0;orthogonalLoop=1;jettySize=auto;html=1;" edge="1" parent="1" source="JY17cGGeGFokxtmzh6jR-76" target="c2DRTkK29ze6gAXHxPbl-19">
          <mxGeometry relative="1" as="geometry" />
        </mxCell>
        <mxCell id="JY17cGGeGFokxtmzh6jR-76" value="Màn hình cẩm nang" style="rounded=1;whiteSpace=wrap;html=1;" parent="1" vertex="1">
          <mxGeometry x="980" y="340" width="140" height="50" as="geometry" />
        </mxCell>
        <mxCell id="JY17cGGeGFokxtmzh6jR-85" value="" style="edgeStyle=orthogonalEdgeStyle;rounded=0;orthogonalLoop=1;jettySize=auto;html=1;" parent="1" source="JY17cGGeGFokxtmzh6jR-81" target="JY17cGGeGFokxtmzh6jR-84" edge="1">
          <mxGeometry relative="1" as="geometry">
            <Array as="points">
              <mxPoint x="1680" y="620" />
            </Array>
          </mxGeometry>
        </mxCell>
        <mxCell id="JY17cGGeGFokxtmzh6jR-81" value="Màn hình loại bệnh đã chọn" style="rounded=1;whiteSpace=wrap;html=1;" parent="1" vertex="1">
          <mxGeometry x="1190" y="600" width="140" height="50" as="geometry" />
        </mxCell>
        <mxCell id="JY17cGGeGFokxtmzh6jR-87" value="" style="edgeStyle=orthogonalEdgeStyle;rounded=0;orthogonalLoop=1;jettySize=auto;html=1;" parent="1" source="JY17cGGeGFokxtmzh6jR-84" target="JY17cGGeGFokxtmzh6jR-86" edge="1">
          <mxGeometry relative="1" as="geometry" />
        </mxCell>
        <mxCell id="JY17cGGeGFokxtmzh6jR-84" value="Màn hình chọn lịch khám" style="rounded=1;whiteSpace=wrap;html=1;" parent="1" vertex="1">
          <mxGeometry x="1610" y="690" width="140" height="50" as="geometry" />
        </mxCell>
        <mxCell id="JY17cGGeGFokxtmzh6jR-86" value="Màn hình thanh toán" style="rounded=1;whiteSpace=wrap;html=1;" parent="1" vertex="1">
          <mxGeometry x="1840" y="730" width="140" height="50" as="geometry" />
        </mxCell>
        <mxCell id="JY17cGGeGFokxtmzh6jR-89" value="Màn hình nhập thông tin cần tìm kiếm" style="rounded=1;whiteSpace=wrap;html=1;" parent="1" vertex="1">
          <mxGeometry x="1190" y="520" width="140" height="50" as="geometry" />
        </mxCell>
        <mxCell id="JY17cGGeGFokxtmzh6jR-101" value="" style="edgeStyle=orthogonalEdgeStyle;rounded=0;orthogonalLoop=1;jettySize=auto;html=1;" parent="1" source="JY17cGGeGFokxtmzh6jR-91" target="JY17cGGeGFokxtmzh6jR-94" edge="1">
          <mxGeometry relative="1" as="geometry">
            <Array as="points">
              <mxPoint x="1350" y="795" />
              <mxPoint x="1350" y="715" />
            </Array>
          </mxGeometry>
        </mxCell>
        <mxCell id="JY17cGGeGFokxtmzh6jR-104" value="" style="edgeStyle=orthogonalEdgeStyle;rounded=0;orthogonalLoop=1;jettySize=auto;html=1;" parent="1" source="JY17cGGeGFokxtmzh6jR-91" target="JY17cGGeGFokxtmzh6jR-103" edge="1">
          <mxGeometry relative="1" as="geometry">
            <Array as="points">
              <mxPoint x="1400" y="795" />
            </Array>
          </mxGeometry>
        </mxCell>
        <mxCell id="JY17cGGeGFokxtmzh6jR-111" value="" style="edgeStyle=orthogonalEdgeStyle;rounded=0;orthogonalLoop=1;jettySize=auto;html=1;" parent="1" source="JY17cGGeGFokxtmzh6jR-91" target="JY17cGGeGFokxtmzh6jR-110" edge="1">
          <mxGeometry relative="1" as="geometry">
            <Array as="points">
              <mxPoint x="1350" y="795" />
            </Array>
          </mxGeometry>
        </mxCell>
        <mxCell id="JY17cGGeGFokxtmzh6jR-91" value="Màn hình hồ sơ bác sĩ" style="rounded=1;whiteSpace=wrap;html=1;" parent="1" vertex="1">
          <mxGeometry x="1190" y="770" width="140" height="50" as="geometry" />
        </mxCell>
        <mxCell id="JY17cGGeGFokxtmzh6jR-96" style="edgeStyle=orthogonalEdgeStyle;rounded=0;orthogonalLoop=1;jettySize=auto;html=1;entryX=0;entryY=0.5;entryDx=0;entryDy=0;" parent="1" source="JY17cGGeGFokxtmzh6jR-94" target="JY17cGGeGFokxtmzh6jR-84" edge="1">
          <mxGeometry relative="1" as="geometry" />
        </mxCell>
        <mxCell id="JY17cGGeGFokxtmzh6jR-94" value="Màn hình đặt khám ngay" style="rounded=1;whiteSpace=wrap;html=1;" parent="1" vertex="1">
          <mxGeometry x="1370" y="690" width="140" height="50" as="geometry" />
        </mxCell>
        <mxCell id="JY17cGGeGFokxtmzh6jR-106" value="" style="edgeStyle=orthogonalEdgeStyle;rounded=0;orthogonalLoop=1;jettySize=auto;html=1;" parent="1" source="JY17cGGeGFokxtmzh6jR-103" target="JY17cGGeGFokxtmzh6jR-105" edge="1">
          <mxGeometry relative="1" as="geometry" />
        </mxCell>
        <mxCell id="JY17cGGeGFokxtmzh6jR-103" value="Màn hình đăng ký theo dõi sức khỏe" style="rounded=1;whiteSpace=wrap;html=1;" parent="1" vertex="1">
          <mxGeometry x="1370" y="770" width="140" height="50" as="geometry" />
        </mxCell>
        <mxCell id="JY17cGGeGFokxtmzh6jR-107" style="edgeStyle=orthogonalEdgeStyle;rounded=0;orthogonalLoop=1;jettySize=auto;html=1;entryX=0;entryY=0.5;entryDx=0;entryDy=0;" parent="1" source="JY17cGGeGFokxtmzh6jR-105" target="JY17cGGeGFokxtmzh6jR-86" edge="1">
          <mxGeometry relative="1" as="geometry" />
        </mxCell>
        <mxCell id="JY17cGGeGFokxtmzh6jR-105" value="Màn hình chọn gói đăng ký theo dõi sức khỏe" style="rounded=1;whiteSpace=wrap;html=1;" parent="1" vertex="1">
          <mxGeometry x="1610" y="770" width="140" height="50" as="geometry" />
        </mxCell>
        <mxCell id="JY17cGGeGFokxtmzh6jR-110" value="Màn hình đặt khám tại nhà" style="rounded=1;whiteSpace=wrap;html=1;" parent="1" vertex="1">
          <mxGeometry x="1370" y="870" width="140" height="50" as="geometry" />
        </mxCell>
        <mxCell id="JY17cGGeGFokxtmzh6jR-114" value="Màn hình chi tiết hồ sơ sức khỏe" style="rounded=1;whiteSpace=wrap;html=1;" parent="1" vertex="1">
          <mxGeometry x="1190" y="930" width="140" height="50" as="geometry" />
        </mxCell>
        <mxCell id="JY17cGGeGFokxtmzh6jR-116" value="Màn hình xem chi tiết sức theo dõi sức khỏe" style="rounded=1;whiteSpace=wrap;html=1;" parent="1" vertex="1">
          <mxGeometry x="1190" y="1000" width="140" height="50" as="geometry" />
        </mxCell>
        <mxCell id="JY17cGGeGFokxtmzh6jR-118" value="Màn hình cập nhật sức khỏe" style="rounded=1;whiteSpace=wrap;html=1;" parent="1" vertex="1">
          <mxGeometry x="1190" y="1080" width="140" height="50" as="geometry" />
        </mxCell>
        <mxCell id="JY17cGGeGFokxtmzh6jR-123" value="" style="edgeStyle=orthogonalEdgeStyle;rounded=0;orthogonalLoop=1;jettySize=auto;html=1;" parent="1" source="JY17cGGeGFokxtmzh6jR-120" target="JY17cGGeGFokxtmzh6jR-122" edge="1">
          <mxGeometry relative="1" as="geometry">
            <Array as="points">
              <mxPoint x="1350" y="1275" />
              <mxPoint x="1350" y="1320" />
            </Array>
          </mxGeometry>
        </mxCell>
        <mxCell id="JY17cGGeGFokxtmzh6jR-164" style="edgeStyle=orthogonalEdgeStyle;rounded=0;orthogonalLoop=1;jettySize=auto;html=1;entryX=0;entryY=0.5;entryDx=0;entryDy=0;" parent="1" source="JY17cGGeGFokxtmzh6jR-120" target="JY17cGGeGFokxtmzh6jR-124" edge="1">
          <mxGeometry relative="1" as="geometry" />
        </mxCell>
        <mxCell id="JY17cGGeGFokxtmzh6jR-120" value="Màn hình xem chi tiết hẹn khám tại nhà" style="rounded=1;whiteSpace=wrap;html=1;" parent="1" vertex="1">
          <mxGeometry x="1190" y="1250" width="140" height="50" as="geometry" />
        </mxCell>
        <mxCell id="JY17cGGeGFokxtmzh6jR-122" value="Màn hình hồ sơ bệnh nhân" style="rounded=1;whiteSpace=wrap;html=1;" parent="1" vertex="1">
          <mxGeometry x="1370" y="1290" width="140" height="50" as="geometry" />
        </mxCell>
        <mxCell id="JY17cGGeGFokxtmzh6jR-124" value="Màn hình đánh giá bác sĩ" style="rounded=1;whiteSpace=wrap;html=1;" parent="1" vertex="1">
          <mxGeometry x="1370" y="1210" width="140" height="50" as="geometry" />
        </mxCell>
        <mxCell id="JY17cGGeGFokxtmzh6jR-131" value="" style="edgeStyle=orthogonalEdgeStyle;rounded=0;orthogonalLoop=1;jettySize=auto;html=1;" parent="1" source="JY17cGGeGFokxtmzh6jR-128" target="JY17cGGeGFokxtmzh6jR-130" edge="1">
          <mxGeometry relative="1" as="geometry" />
        </mxCell>
        <mxCell id="JY17cGGeGFokxtmzh6jR-128" value="Màn hình thông tin chi tiết cuộc hẹn" style="rounded=1;whiteSpace=wrap;html=1;" parent="1" vertex="1">
          <mxGeometry x="1190" y="1390" width="140" height="50" as="geometry" />
        </mxCell>
        <mxCell id="c2DRTkK29ze6gAXHxPbl-25" value="" style="edgeStyle=orthogonalEdgeStyle;rounded=0;orthogonalLoop=1;jettySize=auto;html=1;" edge="1" parent="1" source="JY17cGGeGFokxtmzh6jR-130" target="c2DRTkK29ze6gAXHxPbl-24">
          <mxGeometry relative="1" as="geometry" />
        </mxCell>
        <mxCell id="JY17cGGeGFokxtmzh6jR-130" value="Màn hình tham gia cuộc hẹn meet online" style="rounded=1;whiteSpace=wrap;html=1;" parent="1" vertex="1">
          <mxGeometry x="1370" y="1390" width="140" height="50" as="geometry" />
        </mxCell>
        <mxCell id="JY17cGGeGFokxtmzh6jR-144" value="" style="edgeStyle=orthogonalEdgeStyle;rounded=0;orthogonalLoop=1;jettySize=auto;html=1;exitX=1;exitY=0.5;exitDx=0;exitDy=0;" parent="1" source="JY17cGGeGFokxtmzh6jR-57" target="JY17cGGeGFokxtmzh6jR-143" edge="1">
          <mxGeometry relative="1" as="geometry">
            <Array as="points">
              <mxPoint x="1160" y="1535" />
              <mxPoint x="1160" y="1605" />
            </Array>
          </mxGeometry>
        </mxCell>
        <mxCell id="JY17cGGeGFokxtmzh6jR-132" value="Màn hình đặt câu hỏi cho bác sĩ" style="rounded=1;whiteSpace=wrap;html=1;" parent="1" vertex="1">
          <mxGeometry x="1190" y="1480" width="140" height="50" as="geometry" />
        </mxCell>
        <mxCell id="JY17cGGeGFokxtmzh6jR-143" value="Màn hình chi tiết câu hỏi" style="rounded=1;whiteSpace=wrap;html=1;" parent="1" vertex="1">
          <mxGeometry x="1190" y="1580" width="140" height="50" as="geometry" />
        </mxCell>
        <mxCell id="JY17cGGeGFokxtmzh6jR-145" value="Màn hình chi tiết cẩm nang" style="rounded=1;whiteSpace=wrap;html=1;" parent="1" vertex="1">
          <mxGeometry x="1190" y="1650" width="140" height="50" as="geometry" />
        </mxCell>
        <mxCell id="JY17cGGeGFokxtmzh6jR-150" value="Màn hình doanh thu của tôi" style="rounded=1;whiteSpace=wrap;html=1;" parent="1" vertex="1">
          <mxGeometry x="1190" y="-540" width="140" height="50" as="geometry" />
        </mxCell>
        <mxCell id="JY17cGGeGFokxtmzh6jR-160" value="Màn hình doanh thu đăng ký theo dõi sức khỏe" style="rounded=1;whiteSpace=wrap;html=1;" parent="1" vertex="1">
          <mxGeometry x="1190" y="-460" width="140" height="50" as="geometry" />
        </mxCell>
        <mxCell id="JY17cGGeGFokxtmzh6jR-162" value="Màn hình hẹn khám tại nhà" style="rounded=1;whiteSpace=wrap;html=1;" parent="1" vertex="1">
          <mxGeometry x="1190" y="-390" width="140" height="50" as="geometry" />
        </mxCell>
        <mxCell id="JY17cGGeGFokxtmzh6jR-165" value="" style="edgeStyle=orthogonalEdgeStyle;rounded=0;orthogonalLoop=1;jettySize=auto;html=1;" parent="1" target="JY17cGGeGFokxtmzh6jR-168" edge="1">
          <mxGeometry relative="1" as="geometry">
            <mxPoint x="1125" y="-195" as="sourcePoint" />
            <Array as="points">
              <mxPoint x="1170" y="-195" />
              <mxPoint x="1170" y="-285" />
            </Array>
          </mxGeometry>
        </mxCell>
        <mxCell id="JY17cGGeGFokxtmzh6jR-166" style="edgeStyle=orthogonalEdgeStyle;rounded=0;orthogonalLoop=1;jettySize=auto;html=1;entryX=0;entryY=0.5;entryDx=0;entryDy=0;" parent="1" target="JY17cGGeGFokxtmzh6jR-169" edge="1">
          <mxGeometry relative="1" as="geometry">
            <mxPoint x="1125" y="-195" as="sourcePoint" />
          </mxGeometry>
        </mxCell>
        <mxCell id="JY17cGGeGFokxtmzh6jR-167" style="edgeStyle=orthogonalEdgeStyle;rounded=0;orthogonalLoop=1;jettySize=auto;html=1;entryX=0;entryY=0.5;entryDx=0;entryDy=0;" parent="1" target="JY17cGGeGFokxtmzh6jR-170" edge="1">
          <mxGeometry relative="1" as="geometry">
            <mxPoint x="1125" y="-195" as="sourcePoint" />
            <Array as="points">
              <mxPoint x="1170" y="-195" />
              <mxPoint x="1170" y="-115" />
            </Array>
          </mxGeometry>
        </mxCell>
        <mxCell id="JY17cGGeGFokxtmzh6jR-168" value="Màn hình phiếu đăng ký hẹn khám tại nhà" style="rounded=1;whiteSpace=wrap;html=1;" parent="1" vertex="1">
          <mxGeometry x="1190" y="-300" width="140" height="50" as="geometry" />
        </mxCell>
        <mxCell id="JY17cGGeGFokxtmzh6jR-169" value="Màn hình phiếu theo dõi sức khỏe" style="rounded=1;whiteSpace=wrap;html=1;" parent="1" vertex="1">
          <mxGeometry x="1190" y="-220" width="140" height="50" as="geometry" />
        </mxCell>
        <mxCell id="JY17cGGeGFokxtmzh6jR-187" value="" style="edgeStyle=orthogonalEdgeStyle;rounded=0;orthogonalLoop=1;jettySize=auto;html=1;" parent="1" source="JY17cGGeGFokxtmzh6jR-170" target="JY17cGGeGFokxtmzh6jR-186" edge="1">
          <mxGeometry relative="1" as="geometry">
            <Array as="points">
              <mxPoint x="1350" y="-115" />
              <mxPoint x="1350" y="-175" />
            </Array>
          </mxGeometry>
        </mxCell>
        <mxCell id="JY17cGGeGFokxtmzh6jR-189" value="" style="edgeStyle=orthogonalEdgeStyle;rounded=0;orthogonalLoop=1;jettySize=auto;html=1;" parent="1" source="JY17cGGeGFokxtmzh6jR-170" target="JY17cGGeGFokxtmzh6jR-188" edge="1">
          <mxGeometry relative="1" as="geometry" />
        </mxCell>
        <mxCell id="JY17cGGeGFokxtmzh6jR-192" value="" style="edgeStyle=orthogonalEdgeStyle;rounded=0;orthogonalLoop=1;jettySize=auto;html=1;" parent="1" source="JY17cGGeGFokxtmzh6jR-170" target="JY17cGGeGFokxtmzh6jR-191" edge="1">
          <mxGeometry relative="1" as="geometry">
            <Array as="points">
              <mxPoint x="1350" y="-115" />
              <mxPoint x="1350" y="-40" />
            </Array>
          </mxGeometry>
        </mxCell>
        <mxCell id="JY17cGGeGFokxtmzh6jR-170" value="Màn hình hẹn khám tại nhà" style="rounded=1;whiteSpace=wrap;html=1;" parent="1" vertex="1">
          <mxGeometry x="1190" y="-140" width="140" height="50" as="geometry" />
        </mxCell>
        <mxCell id="c2DRTkK29ze6gAXHxPbl-27" value="" style="edgeStyle=orthogonalEdgeStyle;rounded=0;orthogonalLoop=1;jettySize=auto;html=1;" edge="1" parent="1" source="JY17cGGeGFokxtmzh6jR-176" target="c2DRTkK29ze6gAXHxPbl-26">
          <mxGeometry relative="1" as="geometry" />
        </mxCell>
        <mxCell id="JY17cGGeGFokxtmzh6jR-176" value="Màn hình tham gia cuộc hẹn meet online" style="rounded=1;whiteSpace=wrap;html=1;" parent="1" vertex="1">
          <mxGeometry x="1370" y="-300" width="140" height="50" as="geometry" />
        </mxCell>
        <mxCell id="JY17cGGeGFokxtmzh6jR-182" value="Màn hình thanh toán" style="rounded=1;whiteSpace=wrap;html=1;" parent="1" vertex="1">
          <mxGeometry x="1190" y="1170" width="140" height="50" as="geometry" />
        </mxCell>
        <mxCell id="JY17cGGeGFokxtmzh6jR-186" value="Màn hình xem vị trí bệnh nhân" style="rounded=1;whiteSpace=wrap;html=1;" parent="1" vertex="1">
          <mxGeometry x="1370" y="-200" width="140" height="50" as="geometry" />
        </mxCell>
        <mxCell id="JY17cGGeGFokxtmzh6jR-188" value="Màn hình hồ sơ bệnh nhân" style="rounded=1;whiteSpace=wrap;html=1;" parent="1" vertex="1">
          <mxGeometry x="1370" y="-140" width="140" height="50" as="geometry" />
        </mxCell>
        <mxCell id="JY17cGGeGFokxtmzh6jR-191" value="Màn hình thiệt lập thời gian khám" style="rounded=1;whiteSpace=wrap;html=1;" parent="1" vertex="1">
          <mxGeometry x="1370" y="-70" width="140" height="50" as="geometry" />
        </mxCell>
        <mxCell id="c2DRTkK29ze6gAXHxPbl-4" value="" style="edgeStyle=orthogonalEdgeStyle;rounded=0;orthogonalLoop=1;jettySize=auto;html=1;" edge="1" parent="1" source="JY17cGGeGFokxtmzh6jR-198" target="c2DRTkK29ze6gAXHxPbl-3">
          <mxGeometry relative="1" as="geometry" />
        </mxCell>
        <mxCell id="JY17cGGeGFokxtmzh6jR-198" value="Màn hình bệnh nhân của tôi" style="rounded=1;whiteSpace=wrap;html=1;" parent="1" vertex="1">
          <mxGeometry x="988.75" y="60" width="142.5" height="50" as="geometry" />
        </mxCell>
        <mxCell id="c2DRTkK29ze6gAXHxPbl-6" value="" style="edgeStyle=orthogonalEdgeStyle;rounded=0;orthogonalLoop=1;jettySize=auto;html=1;" edge="1" parent="1" source="c2DRTkK29ze6gAXHxPbl-3" target="c2DRTkK29ze6gAXHxPbl-5">
          <mxGeometry relative="1" as="geometry">
            <Array as="points">
              <mxPoint x="1350" y="85" />
              <mxPoint x="1350" y="15" />
            </Array>
          </mxGeometry>
        </mxCell>
        <mxCell id="c2DRTkK29ze6gAXHxPbl-9" value="" style="edgeStyle=orthogonalEdgeStyle;rounded=0;orthogonalLoop=1;jettySize=auto;html=1;" edge="1" parent="1" source="c2DRTkK29ze6gAXHxPbl-3" target="c2DRTkK29ze6gAXHxPbl-8">
          <mxGeometry relative="1" as="geometry">
            <Array as="points">
              <mxPoint x="1350" y="85" />
              <mxPoint x="1350" y="160" />
            </Array>
          </mxGeometry>
        </mxCell>
        <mxCell id="c2DRTkK29ze6gAXHxPbl-12" value="" style="edgeStyle=orthogonalEdgeStyle;rounded=0;orthogonalLoop=1;jettySize=auto;html=1;" edge="1" parent="1" source="c2DRTkK29ze6gAXHxPbl-3" target="c2DRTkK29ze6gAXHxPbl-11">
          <mxGeometry relative="1" as="geometry" />
        </mxCell>
        <mxCell id="c2DRTkK29ze6gAXHxPbl-3" value="Màn hình thông tin chi tiết bệnh nhân" style="rounded=1;whiteSpace=wrap;html=1;" vertex="1" parent="1">
          <mxGeometry x="1180" y="60" width="142.5" height="50" as="geometry" />
        </mxCell>
        <mxCell id="c2DRTkK29ze6gAXHxPbl-5" value="Màn hình thông tin chi tiết bệnh nhân" style="rounded=1;whiteSpace=wrap;html=1;" vertex="1" parent="1">
          <mxGeometry x="1370" y="-10" width="142.5" height="50" as="geometry" />
        </mxCell>
        <mxCell id="c2DRTkK29ze6gAXHxPbl-8" value="Màn hình nhắc nhở bệnh nhân" style="rounded=1;whiteSpace=wrap;html=1;" vertex="1" parent="1">
          <mxGeometry x="1370" y="130" width="142.5" height="50" as="geometry" />
        </mxCell>
        <mxCell id="c2DRTkK29ze6gAXHxPbl-11" value="Màn hình thông tin chi tiết bệnh nhân" style="rounded=1;whiteSpace=wrap;html=1;" vertex="1" parent="1">
          <mxGeometry x="1370" y="60" width="142.5" height="50" as="geometry" />
        </mxCell>
        <mxCell id="c2DRTkK29ze6gAXHxPbl-13" value="Màn hình chọn lịch khám" style="rounded=1;whiteSpace=wrap;html=1;" vertex="1" parent="1">
          <mxGeometry x="1180" y="160" width="140" height="50" as="geometry" />
        </mxCell>
        <mxCell id="c2DRTkK29ze6gAXHxPbl-15" value="Màn hình chi tiết câu hỏi" style="rounded=1;whiteSpace=wrap;html=1;" vertex="1" parent="1">
          <mxGeometry x="1180" y="240" width="140" height="50" as="geometry" />
        </mxCell>
        <mxCell id="c2DRTkK29ze6gAXHxPbl-17" value="Màn hình chi tiết cẩm nang" style="rounded=1;whiteSpace=wrap;html=1;" vertex="1" parent="1">
          <mxGeometry x="1180" y="310" width="140" height="50" as="geometry" />
        </mxCell>
        <mxCell id="c2DRTkK29ze6gAXHxPbl-19" value="Màn hình đăng cẩm nang" style="rounded=1;whiteSpace=wrap;html=1;" vertex="1" parent="1">
          <mxGeometry x="1181.25" y="380" width="140" height="50" as="geometry" />
        </mxCell>
        <mxCell id="c2DRTkK29ze6gAXHxPbl-24" value="Màn hình hồ sơ bệnh nhân" style="rounded=1;whiteSpace=wrap;html=1;" vertex="1" parent="1">
          <mxGeometry x="1550" y="1390" width="140" height="50" as="geometry" />
        </mxCell>
        <mxCell id="c2DRTkK29ze6gAXHxPbl-26" value="Màn hình đánh giá bác sĩ" style="rounded=1;whiteSpace=wrap;html=1;" vertex="1" parent="1">
          <mxGeometry x="1560" y="-300" width="140" height="50" as="geometry" />
        </mxCell>
      </root>
    </mxGraphModel>
  </diagram>
</mxfile>
